<mxfile host="app.diagrams.net" modified="2024-05-21T05:26:16.258Z" agent="Mozilla/5.0 (Windows NT 10.0; Win64; x64) AppleWebKit/537.36 (KHTML, like Gecko) Chrome/125.0.0.0 Safari/537.36" etag="Tx7D36lD8ueLswIr_2z0" version="24.4.4" type="device">
  <diagram name="Page-1" id="L43IKt63solKVQ7qY9LO">
    <mxGraphModel dx="2444" dy="1843" grid="1" gridSize="10" guides="1" tooltips="1" connect="1" arrows="1" fold="1" page="1" pageScale="1" pageWidth="850" pageHeight="1100" math="0" shadow="0">
      <root>
        <mxCell id="0" />
        <mxCell id="1" parent="0" />
        <mxCell id="Bhmwx9g02cNJalvkNO_Q-17" style="edgeStyle=orthogonalEdgeStyle;rounded=0;orthogonalLoop=1;jettySize=auto;html=1;entryX=0.5;entryY=0;entryDx=0;entryDy=0;" edge="1" parent="1" source="Bhmwx9g02cNJalvkNO_Q-2" target="Bhmwx9g02cNJalvkNO_Q-20">
          <mxGeometry relative="1" as="geometry">
            <mxPoint x="130" y="250" as="targetPoint" />
          </mxGeometry>
        </mxCell>
        <mxCell id="Bhmwx9g02cNJalvkNO_Q-49" style="edgeStyle=orthogonalEdgeStyle;rounded=0;orthogonalLoop=1;jettySize=auto;html=1;entryX=0.5;entryY=0;entryDx=0;entryDy=0;" edge="1" parent="1" source="Bhmwx9g02cNJalvkNO_Q-2" target="Bhmwx9g02cNJalvkNO_Q-19">
          <mxGeometry relative="1" as="geometry">
            <Array as="points">
              <mxPoint x="30" y="130" />
              <mxPoint x="290" y="130" />
            </Array>
          </mxGeometry>
        </mxCell>
        <mxCell id="Bhmwx9g02cNJalvkNO_Q-55" style="edgeStyle=orthogonalEdgeStyle;rounded=0;orthogonalLoop=1;jettySize=auto;html=1;entryX=0.5;entryY=0;entryDx=0;entryDy=0;" edge="1" parent="1" source="Bhmwx9g02cNJalvkNO_Q-2" target="Bhmwx9g02cNJalvkNO_Q-13">
          <mxGeometry relative="1" as="geometry">
            <Array as="points">
              <mxPoint x="30" y="130" />
              <mxPoint x="-230" y="130" />
            </Array>
          </mxGeometry>
        </mxCell>
        <mxCell id="Bhmwx9g02cNJalvkNO_Q-2" value="&lt;b style=&quot;&quot;&gt;PERSONAL&lt;/b&gt;" style="whiteSpace=wrap;html=1;fillColor=#99FFFF;" vertex="1" parent="1">
          <mxGeometry x="-60" y="30" width="180" height="60" as="geometry" />
        </mxCell>
        <mxCell id="Bhmwx9g02cNJalvkNO_Q-88" style="edgeStyle=orthogonalEdgeStyle;rounded=0;orthogonalLoop=1;jettySize=auto;html=1;exitX=0;exitY=0.5;exitDx=0;exitDy=0;entryX=1;entryY=0.5;entryDx=0;entryDy=0;" edge="1" parent="1" source="Bhmwx9g02cNJalvkNO_Q-11" target="Bhmwx9g02cNJalvkNO_Q-78">
          <mxGeometry relative="1" as="geometry" />
        </mxCell>
        <mxCell id="Bhmwx9g02cNJalvkNO_Q-11" value="Consume servicio: ms-consumer" style="shape=document;whiteSpace=wrap;html=1;boundedLbl=1;" vertex="1" parent="1">
          <mxGeometry x="650" y="-370" width="120" height="80" as="geometry" />
        </mxCell>
        <mxCell id="Bhmwx9g02cNJalvkNO_Q-56" style="edgeStyle=orthogonalEdgeStyle;rounded=0;orthogonalLoop=1;jettySize=auto;html=1;entryX=0.5;entryY=0;entryDx=0;entryDy=0;" edge="1" parent="1" source="Bhmwx9g02cNJalvkNO_Q-13" target="Bhmwx9g02cNJalvkNO_Q-27">
          <mxGeometry relative="1" as="geometry">
            <Array as="points">
              <mxPoint x="-230" y="220" />
              <mxPoint x="30" y="220" />
            </Array>
          </mxGeometry>
        </mxCell>
        <mxCell id="Bhmwx9g02cNJalvkNO_Q-13" value="AHORRO" style="whiteSpace=wrap;html=1;fillColor=default;" vertex="1" parent="1">
          <mxGeometry x="-270" y="150" width="80" height="40" as="geometry" />
        </mxCell>
        <mxCell id="Bhmwx9g02cNJalvkNO_Q-53" style="edgeStyle=orthogonalEdgeStyle;rounded=0;orthogonalLoop=1;jettySize=auto;html=1;entryX=0.5;entryY=0;entryDx=0;entryDy=0;" edge="1" parent="1" source="Bhmwx9g02cNJalvkNO_Q-19" target="Bhmwx9g02cNJalvkNO_Q-27">
          <mxGeometry relative="1" as="geometry">
            <Array as="points">
              <mxPoint x="290" y="220" />
              <mxPoint x="30" y="220" />
            </Array>
          </mxGeometry>
        </mxCell>
        <mxCell id="Bhmwx9g02cNJalvkNO_Q-19" value="PLAZO FIJO" style="whiteSpace=wrap;html=1;fillColor=default;" vertex="1" parent="1">
          <mxGeometry x="250" y="150" width="80" height="40" as="geometry" />
        </mxCell>
        <mxCell id="Bhmwx9g02cNJalvkNO_Q-52" style="edgeStyle=orthogonalEdgeStyle;rounded=0;orthogonalLoop=1;jettySize=auto;html=1;entryX=0.5;entryY=0;entryDx=0;entryDy=0;" edge="1" parent="1" source="Bhmwx9g02cNJalvkNO_Q-20" target="Bhmwx9g02cNJalvkNO_Q-27">
          <mxGeometry relative="1" as="geometry" />
        </mxCell>
        <mxCell id="Bhmwx9g02cNJalvkNO_Q-20" value="CORRIENTE" style="whiteSpace=wrap;html=1;fillColor=default;" vertex="1" parent="1">
          <mxGeometry x="-10" y="150" width="80" height="40" as="geometry" />
        </mxCell>
        <mxCell id="Bhmwx9g02cNJalvkNO_Q-54" style="edgeStyle=orthogonalEdgeStyle;rounded=0;orthogonalLoop=1;jettySize=auto;html=1;entryX=0;entryY=0.5;entryDx=0;entryDy=0;" edge="1" parent="1" source="Bhmwx9g02cNJalvkNO_Q-23" target="Bhmwx9g02cNJalvkNO_Q-27">
          <mxGeometry relative="1" as="geometry" />
        </mxCell>
        <mxCell id="Bhmwx9g02cNJalvkNO_Q-23" value="&lt;b&gt;BANK_ACCOUNTS&lt;/b&gt;" style="shape=cylinder3;whiteSpace=wrap;html=1;boundedLbl=1;backgroundOutline=1;size=15;fillColor=#009900;" vertex="1" parent="1">
          <mxGeometry x="-310" y="275" width="82.5" height="110" as="geometry" />
        </mxCell>
        <mxCell id="Bhmwx9g02cNJalvkNO_Q-33" value="NO" style="edgeStyle=orthogonalEdgeStyle;rounded=0;orthogonalLoop=1;jettySize=auto;html=1;exitX=0.5;exitY=1;exitDx=0;exitDy=0;entryX=0;entryY=0.5;entryDx=0;entryDy=0;" edge="1" parent="1" source="Bhmwx9g02cNJalvkNO_Q-27" target="Bhmwx9g02cNJalvkNO_Q-31">
          <mxGeometry x="-0.1064" relative="1" as="geometry">
            <mxPoint x="20" y="650" as="targetPoint" />
            <Array as="points">
              <mxPoint x="30" y="570" />
            </Array>
            <mxPoint as="offset" />
          </mxGeometry>
        </mxCell>
        <mxCell id="Bhmwx9g02cNJalvkNO_Q-58" value="" style="edgeStyle=orthogonalEdgeStyle;rounded=0;orthogonalLoop=1;jettySize=auto;html=1;" edge="1" parent="1" source="Bhmwx9g02cNJalvkNO_Q-27" target="Bhmwx9g02cNJalvkNO_Q-57">
          <mxGeometry relative="1" as="geometry">
            <Array as="points">
              <mxPoint x="150" y="330" />
            </Array>
          </mxGeometry>
        </mxCell>
        <mxCell id="Bhmwx9g02cNJalvkNO_Q-59" value="SÍ" style="edgeLabel;html=1;align=center;verticalAlign=middle;resizable=0;points=[];" vertex="1" connectable="0" parent="Bhmwx9g02cNJalvkNO_Q-58">
          <mxGeometry x="-0.7415" relative="1" as="geometry">
            <mxPoint as="offset" />
          </mxGeometry>
        </mxCell>
        <mxCell id="Bhmwx9g02cNJalvkNO_Q-27" value="&lt;font style=&quot;font-size: 10px;&quot;&gt;Existe ya 1 cuenta &lt;b&gt;DE ESTE TIPO&amp;nbsp;&lt;/b&gt;asociada al titular&lt;/font&gt;" style="rhombus;whiteSpace=wrap;html=1;" vertex="1" parent="1">
          <mxGeometry x="-40" y="260" width="140" height="140" as="geometry" />
        </mxCell>
        <mxCell id="Bhmwx9g02cNJalvkNO_Q-100" style="edgeStyle=orthogonalEdgeStyle;rounded=0;orthogonalLoop=1;jettySize=auto;html=1;entryX=0;entryY=0.5;entryDx=0;entryDy=0;" edge="1" parent="1" source="Bhmwx9g02cNJalvkNO_Q-31" target="Bhmwx9g02cNJalvkNO_Q-80">
          <mxGeometry relative="1" as="geometry" />
        </mxCell>
        <mxCell id="Bhmwx9g02cNJalvkNO_Q-31" value="Respuesta de creación de cuenta: &lt;b&gt;Exitoso&lt;/b&gt;" style="whiteSpace=wrap;html=1;" vertex="1" parent="1">
          <mxGeometry x="305" y="540" width="120" height="60" as="geometry" />
        </mxCell>
        <mxCell id="Bhmwx9g02cNJalvkNO_Q-83" value="" style="edgeStyle=orthogonalEdgeStyle;rounded=0;orthogonalLoop=1;jettySize=auto;html=1;" edge="1" parent="1" source="Bhmwx9g02cNJalvkNO_Q-40" target="Bhmwx9g02cNJalvkNO_Q-78">
          <mxGeometry relative="1" as="geometry" />
        </mxCell>
        <mxCell id="Bhmwx9g02cNJalvkNO_Q-40" value="&lt;u&gt;PROCESO&lt;/u&gt;:&lt;b&gt; CREAR CUENTA&lt;/b&gt;" style="whiteSpace=wrap;html=1;fillColor=#FFFF33;" vertex="1" parent="1">
          <mxGeometry x="320" y="-490" width="180" height="60" as="geometry" />
        </mxCell>
        <mxCell id="Bhmwx9g02cNJalvkNO_Q-92" style="edgeStyle=orthogonalEdgeStyle;rounded=0;orthogonalLoop=1;jettySize=auto;html=1;entryX=0.5;entryY=0;entryDx=0;entryDy=0;" edge="1" parent="1" source="Bhmwx9g02cNJalvkNO_Q-42" target="Bhmwx9g02cNJalvkNO_Q-91">
          <mxGeometry relative="1" as="geometry" />
        </mxCell>
        <mxCell id="Bhmwx9g02cNJalvkNO_Q-93" style="edgeStyle=orthogonalEdgeStyle;rounded=0;orthogonalLoop=1;jettySize=auto;html=1;entryX=0.5;entryY=0;entryDx=0;entryDy=0;" edge="1" parent="1" source="Bhmwx9g02cNJalvkNO_Q-42" target="Bhmwx9g02cNJalvkNO_Q-89">
          <mxGeometry relative="1" as="geometry">
            <Array as="points">
              <mxPoint x="720" y="120" />
              <mxPoint x="445" y="120" />
            </Array>
          </mxGeometry>
        </mxCell>
        <mxCell id="Bhmwx9g02cNJalvkNO_Q-94" style="edgeStyle=orthogonalEdgeStyle;rounded=0;orthogonalLoop=1;jettySize=auto;html=1;" edge="1" parent="1" source="Bhmwx9g02cNJalvkNO_Q-42" target="Bhmwx9g02cNJalvkNO_Q-90">
          <mxGeometry relative="1" as="geometry">
            <Array as="points">
              <mxPoint x="720" y="120" />
              <mxPoint x="965" y="120" />
            </Array>
          </mxGeometry>
        </mxCell>
        <mxCell id="Bhmwx9g02cNJalvkNO_Q-42" value="&lt;b style=&quot;&quot;&gt;EMPRESARIAL&lt;/b&gt;" style="whiteSpace=wrap;html=1;fillColor=#99FFFF;" vertex="1" parent="1">
          <mxGeometry x="630" y="30" width="180" height="60" as="geometry" />
        </mxCell>
        <mxCell id="Bhmwx9g02cNJalvkNO_Q-98" style="edgeStyle=orthogonalEdgeStyle;rounded=0;orthogonalLoop=1;jettySize=auto;html=1;entryX=0;entryY=0.5;entryDx=0;entryDy=0;" edge="1" parent="1" source="Bhmwx9g02cNJalvkNO_Q-57" target="Bhmwx9g02cNJalvkNO_Q-80">
          <mxGeometry relative="1" as="geometry" />
        </mxCell>
        <mxCell id="Bhmwx9g02cNJalvkNO_Q-57" value="&lt;br&gt;&lt;span style=&quot;color: rgb(0, 0, 0); font-family: Helvetica; font-size: 12px; font-style: normal; font-variant-ligatures: normal; font-variant-caps: normal; font-weight: 400; letter-spacing: normal; orphans: 2; text-align: center; text-indent: 0px; text-transform: none; widows: 2; word-spacing: 0px; -webkit-text-stroke-width: 0px; white-space: normal; background-color: rgb(251, 251, 251); text-decoration-thickness: initial; text-decoration-style: initial; text-decoration-color: initial; display: inline !important; float: none;&quot;&gt;Respuesta de creación de cuenta:&lt;span&gt;&amp;nbsp;&lt;/span&gt;&lt;/span&gt;&lt;b style=&quot;forced-color-adjust: none; color: rgb(0, 0, 0); font-family: Helvetica; font-size: 12px; font-style: normal; font-variant-ligatures: normal; font-variant-caps: normal; letter-spacing: normal; orphans: 2; text-align: center; text-indent: 0px; text-transform: none; widows: 2; word-spacing: 0px; -webkit-text-stroke-width: 0px; white-space: normal; background-color: rgb(251, 251, 251); text-decoration-thickness: initial; text-decoration-style: initial; text-decoration-color: initial;&quot;&gt;Denegado&lt;/b&gt;&lt;div&gt;&lt;br&gt;&lt;/div&gt;" style="whiteSpace=wrap;html=1;" vertex="1" parent="1">
          <mxGeometry x="305" y="440" width="120" height="60" as="geometry" />
        </mxCell>
        <mxCell id="Bhmwx9g02cNJalvkNO_Q-72" style="edgeStyle=orthogonalEdgeStyle;rounded=0;orthogonalLoop=1;jettySize=auto;html=1;entryX=0.5;entryY=0;entryDx=0;entryDy=0;" edge="1" parent="1" source="Bhmwx9g02cNJalvkNO_Q-69" target="Bhmwx9g02cNJalvkNO_Q-2">
          <mxGeometry relative="1" as="geometry">
            <Array as="points">
              <mxPoint x="410" y="-20" />
              <mxPoint x="30" y="-20" />
            </Array>
          </mxGeometry>
        </mxCell>
        <mxCell id="Bhmwx9g02cNJalvkNO_Q-69" value="Cliente existe" style="rhombus;whiteSpace=wrap;html=1;" vertex="1" parent="1">
          <mxGeometry x="357.5" y="-180" width="105" height="105" as="geometry" />
        </mxCell>
        <mxCell id="Bhmwx9g02cNJalvkNO_Q-73" style="edgeStyle=orthogonalEdgeStyle;rounded=0;orthogonalLoop=1;jettySize=auto;html=1;" edge="1" parent="1" source="Bhmwx9g02cNJalvkNO_Q-69">
          <mxGeometry relative="1" as="geometry">
            <mxPoint x="720" y="32" as="targetPoint" />
            <Array as="points">
              <mxPoint x="410" y="-20" />
              <mxPoint x="720" y="-20" />
              <mxPoint x="720" y="32" />
            </Array>
          </mxGeometry>
        </mxCell>
        <mxCell id="Bhmwx9g02cNJalvkNO_Q-74" value="SÍ" style="edgeLabel;html=1;align=center;verticalAlign=middle;resizable=0;points=[];" vertex="1" connectable="0" parent="Bhmwx9g02cNJalvkNO_Q-73">
          <mxGeometry x="-0.925" relative="1" as="geometry">
            <mxPoint as="offset" />
          </mxGeometry>
        </mxCell>
        <mxCell id="Bhmwx9g02cNJalvkNO_Q-107" style="edgeStyle=orthogonalEdgeStyle;rounded=0;orthogonalLoop=1;jettySize=auto;html=1;" edge="1" parent="1" source="Bhmwx9g02cNJalvkNO_Q-75" target="Bhmwx9g02cNJalvkNO_Q-77">
          <mxGeometry relative="1" as="geometry" />
        </mxCell>
        <mxCell id="Bhmwx9g02cNJalvkNO_Q-75" value="&lt;b&gt;CUSTOMER&lt;/b&gt;" style="shape=cylinder3;whiteSpace=wrap;html=1;boundedLbl=1;backgroundOutline=1;size=15;fillColor=#009900;" vertex="1" parent="1">
          <mxGeometry x="880" y="-260" width="82.5" height="110" as="geometry" />
        </mxCell>
        <mxCell id="Bhmwx9g02cNJalvkNO_Q-77" value="https:host/customer/&lt;b&gt;{id}&lt;/b&gt;" style="shape=parallelogram;perimeter=parallelogramPerimeter;whiteSpace=wrap;html=1;fixedSize=1;" vertex="1" parent="1">
          <mxGeometry x="600" y="-225" width="210" height="40" as="geometry" />
        </mxCell>
        <mxCell id="Bhmwx9g02cNJalvkNO_Q-85" style="edgeStyle=orthogonalEdgeStyle;rounded=0;orthogonalLoop=1;jettySize=auto;html=1;entryX=0.5;entryY=0;entryDx=0;entryDy=0;" edge="1" parent="1" source="Bhmwx9g02cNJalvkNO_Q-78" target="Bhmwx9g02cNJalvkNO_Q-69">
          <mxGeometry relative="1" as="geometry" />
        </mxCell>
        <mxCell id="Bhmwx9g02cNJalvkNO_Q-78" value="Solicitud de creación de cuenta" style="shape=parallelogram;perimeter=parallelogramPerimeter;whiteSpace=wrap;html=1;fixedSize=1;" vertex="1" parent="1">
          <mxGeometry x="305" y="-300" width="210" height="40" as="geometry" />
        </mxCell>
        <mxCell id="Bhmwx9g02cNJalvkNO_Q-84" style="edgeStyle=orthogonalEdgeStyle;rounded=0;orthogonalLoop=1;jettySize=auto;html=1;entryX=0;entryY=0.5;entryDx=0;entryDy=0;" edge="1" parent="1" source="Bhmwx9g02cNJalvkNO_Q-79" target="Bhmwx9g02cNJalvkNO_Q-78">
          <mxGeometry relative="1" as="geometry" />
        </mxCell>
        <mxCell id="Bhmwx9g02cNJalvkNO_Q-79" value="&lt;p style=&quot;margin:0px;margin-top:4px;text-align:center;text-decoration:underline;&quot;&gt;&lt;b&gt;Object:Account&lt;/b&gt;&lt;/p&gt;&lt;hr size=&quot;1&quot; style=&quot;border-style:solid;&quot;&gt;&lt;p style=&quot;margin:0px;margin-left:8px;&quot;&gt;&lt;b&gt;id &lt;/b&gt;= long&lt;br&gt;&lt;b&gt;customerId &lt;/b&gt;= long&lt;br&gt;&lt;b&gt;accountType &lt;/b&gt;= string&lt;/p&gt;&lt;p style=&quot;margin:0px;margin-left:8px;&quot;&gt;&lt;b&gt;holdersId&amp;nbsp;&lt;/b&gt;= long array&lt;br&gt;&lt;/p&gt;&lt;p style=&quot;margin:0px;margin-left:8px;&quot;&gt;&lt;b&gt;signatoriesId&amp;nbsp;&lt;/b&gt;= long&amp;nbsp;&lt;span style=&quot;background-color: initial;&quot;&gt;array&lt;/span&gt;&lt;br&gt;&lt;/p&gt;&lt;p style=&quot;margin:0px;margin-left:8px;&quot;&gt;&lt;b&gt;amount&amp;nbsp;&lt;/b&gt;= double&lt;span style=&quot;background-color: initial;&quot;&gt;&lt;br&gt;&lt;/span&gt;&lt;/p&gt;&lt;p style=&quot;margin:0px;margin-left:8px;&quot;&gt;&lt;span style=&quot;background-color: initial;&quot;&gt;&lt;b&gt;conditions.&lt;/b&gt;&lt;/span&gt;&lt;span style=&quot;background-color: initial;&quot;&gt;&lt;b&gt;monthlyMovements.&lt;/b&gt;&lt;/span&gt;&lt;span style=&quot;background-color: initial;&quot;&gt;&lt;b&gt;limit&amp;nbsp;&lt;/b&gt;&lt;/span&gt;&lt;span style=&quot;background-color: initial;&quot;&gt;= int&lt;/span&gt;&lt;/p&gt;&lt;p style=&quot;margin:0px;margin-left:8px;&quot;&gt;&lt;span style=&quot;background-color: initial;&quot;&gt;&lt;b&gt;conditions.&lt;/b&gt;&lt;/span&gt;&lt;span style=&quot;background-color: initial;&quot;&gt;&lt;b&gt;monthlyMovements.&lt;/b&gt;&lt;/span&gt;&lt;span style=&quot;background-color: initial;&quot;&gt;&lt;b&gt;counter&amp;nbsp;&lt;/b&gt;= int&lt;/span&gt;&lt;br&gt;&lt;/p&gt;&lt;p style=&quot;margin:0px;margin-left:8px;&quot;&gt;&lt;span style=&quot;background-color: initial;&quot;&gt;&lt;b&gt;conditions.&lt;/b&gt;&lt;/span&gt;&lt;span style=&quot;background-color: initial;&quot;&gt;&lt;b&gt;fee.&lt;/b&gt;&lt;/span&gt;&lt;span style=&quot;background-color: initial;&quot;&gt;&lt;b&gt;enabled&lt;/b&gt;= int&lt;/span&gt;&lt;span style=&quot;background-color: initial;&quot;&gt;&lt;br&gt;&lt;/span&gt;&lt;/p&gt;&lt;p style=&quot;margin:0px;margin-left:8px;&quot;&gt;&lt;span style=&quot;background-color: initial;&quot;&gt;&lt;b&gt;conditions.&lt;/b&gt;&lt;/span&gt;&lt;span style=&quot;background-color: initial;&quot;&gt;&lt;b&gt;fee.&lt;/b&gt;&lt;/span&gt;&lt;span style=&quot;background-color: initial;&quot;&gt;&lt;b&gt;amount&lt;/b&gt;= double&lt;/span&gt;&lt;/p&gt;" style="verticalAlign=top;align=left;overflow=fill;html=1;whiteSpace=wrap;" vertex="1" parent="1">
          <mxGeometry x="-270" y="-370" width="520" height="180" as="geometry" />
        </mxCell>
        <mxCell id="Bhmwx9g02cNJalvkNO_Q-80" value="" style="ellipse;html=1;shape=endState;fillColor=#000000;strokeColor=#ff0000;" vertex="1" parent="1">
          <mxGeometry x="570" y="490" width="50" height="50" as="geometry" />
        </mxCell>
        <mxCell id="Bhmwx9g02cNJalvkNO_Q-81" value="" style="ellipse;html=1;shape=startState;fillColor=#000000;strokeColor=#ff0000;" vertex="1" parent="1">
          <mxGeometry x="380" y="-600" width="60" height="60" as="geometry" />
        </mxCell>
        <mxCell id="Bhmwx9g02cNJalvkNO_Q-82" value="" style="edgeStyle=orthogonalEdgeStyle;html=1;verticalAlign=bottom;endArrow=open;endSize=8;strokeColor=#ff0000;rounded=0;entryX=0.5;entryY=0;entryDx=0;entryDy=0;" edge="1" source="Bhmwx9g02cNJalvkNO_Q-81" parent="1" target="Bhmwx9g02cNJalvkNO_Q-40">
          <mxGeometry relative="1" as="geometry">
            <mxPoint x="535" y="-540" as="targetPoint" />
          </mxGeometry>
        </mxCell>
        <mxCell id="Bhmwx9g02cNJalvkNO_Q-87" style="edgeStyle=orthogonalEdgeStyle;rounded=0;orthogonalLoop=1;jettySize=auto;html=1;entryX=0.458;entryY=0.875;entryDx=0;entryDy=0;entryPerimeter=0;" edge="1" parent="1" source="Bhmwx9g02cNJalvkNO_Q-77" target="Bhmwx9g02cNJalvkNO_Q-11">
          <mxGeometry relative="1" as="geometry" />
        </mxCell>
        <mxCell id="Bhmwx9g02cNJalvkNO_Q-102" style="edgeStyle=orthogonalEdgeStyle;rounded=0;orthogonalLoop=1;jettySize=auto;html=1;entryX=0.5;entryY=0;entryDx=0;entryDy=0;" edge="1" parent="1" source="Bhmwx9g02cNJalvkNO_Q-89" target="Bhmwx9g02cNJalvkNO_Q-57">
          <mxGeometry relative="1" as="geometry">
            <Array as="points">
              <mxPoint x="365" y="170" />
            </Array>
          </mxGeometry>
        </mxCell>
        <mxCell id="Bhmwx9g02cNJalvkNO_Q-89" value="AHORRO" style="whiteSpace=wrap;html=1;fillColor=default;" vertex="1" parent="1">
          <mxGeometry x="405" y="150" width="80" height="40" as="geometry" />
        </mxCell>
        <mxCell id="Bhmwx9g02cNJalvkNO_Q-106" style="edgeStyle=orthogonalEdgeStyle;rounded=0;orthogonalLoop=1;jettySize=auto;html=1;entryX=0.5;entryY=1;entryDx=0;entryDy=0;" edge="1" parent="1" source="Bhmwx9g02cNJalvkNO_Q-90" target="Bhmwx9g02cNJalvkNO_Q-31">
          <mxGeometry relative="1" as="geometry">
            <Array as="points">
              <mxPoint x="965" y="620" />
              <mxPoint x="365" y="620" />
            </Array>
          </mxGeometry>
        </mxCell>
        <mxCell id="Bhmwx9g02cNJalvkNO_Q-90" value="CORRIENTE" style="whiteSpace=wrap;html=1;fillColor=default;" vertex="1" parent="1">
          <mxGeometry x="925" y="150" width="80" height="40" as="geometry" />
        </mxCell>
        <mxCell id="Bhmwx9g02cNJalvkNO_Q-105" style="edgeStyle=orthogonalEdgeStyle;rounded=0;orthogonalLoop=1;jettySize=auto;html=1;entryX=0.5;entryY=0;entryDx=0;entryDy=0;" edge="1" parent="1" source="Bhmwx9g02cNJalvkNO_Q-91" target="Bhmwx9g02cNJalvkNO_Q-57">
          <mxGeometry relative="1" as="geometry">
            <Array as="points">
              <mxPoint x="720" y="300" />
              <mxPoint x="365" y="300" />
            </Array>
          </mxGeometry>
        </mxCell>
        <mxCell id="Bhmwx9g02cNJalvkNO_Q-91" value="PLAZO FIJO" style="whiteSpace=wrap;html=1;fillColor=default;" vertex="1" parent="1">
          <mxGeometry x="680" y="150" width="80" height="40" as="geometry" />
        </mxCell>
      </root>
    </mxGraphModel>
  </diagram>
</mxfile>
